<svg id="Logo" xmlns="http://www.w3.org/2000/svg" viewBox="0 0 368.03 43.12"><defs><style>.cls-1{fill:#f0ab00;}.cls-2{fill:#0076cb;}</style></defs><path class="cls-1" d="M383.15,69.39,375.8,62c-7.46-7.42-13.9-13.84-13.9-21.83s5.71-13.94,13.57-13.94a12.89,12.89,0,0,1,7.68,2.52,12.89,12.89,0,0,1,7.68-2.52c7.87,0,13.58,5.86,13.58,13.94S398,54.62,390.51,62ZM375.47,31c-5.3,0-8.86,3.71-8.86,9.23,0,6,5.8,11.81,12.51,18.49l4,4,4-4c6.72-6.68,12.52-12.46,12.52-18.49,0-5.52-3.56-9.23-8.86-9.23a8.31,8.31,0,0,0-6,2.58l-1.69,1.74-1.69-1.74a8.31,8.31,0,0,0-6-2.58" transform="translate(-36.38 -26.27)"/><path class="cls-2" d="M36.38,54.32l4-2.36A7.08,7.08,0,0,0,46.81,56c2.42,0,4.17-.9,4.17-2.74s-1.71-2.59-4.85-3.46c-4.26-1.19-8.72-2.29-8.72-7.3,0-4.46,3.49-7.14,8.63-7.14a10.75,10.75,0,0,1,9.5,4.91l-3.65,2.78A7.15,7.15,0,0,0,46,39.69c-2.23,0-3.46,1-3.46,2.39,0,1.9,1.78,2.58,4.91,3.46,4.2,1.13,8.65,2.45,8.65,7.39,0,3.85-2.9,7.27-9.55,7.27C41.39,60.2,38.16,57.75,36.38,54.32Zm20.7,5.43,8.46-24h5l8.46,24H73.69L71.9,54.42H63.77l-1.85,5.33Zm8-9.14h5.63l-2.75-8.14h-.06Zm16.61,9.14V35.84h8.69c5.1,0,9.76,1.36,9.76,7.66s-5,7.75-9.83,7.75H86.9v8.5ZM86.9,47.18h3.58c3.26,0,4.49-1.26,4.49-3.55s-1.19-3.49-4.49-3.49H86.9Zm24.19,7.14,4-2.36A7.06,7.06,0,0,0,121.52,56c2.42,0,4.17-.9,4.17-2.74s-1.71-2.59-4.85-3.46c-4.26-1.19-8.72-2.29-8.72-7.3,0-4.46,3.49-7.14,8.63-7.14a10.75,10.75,0,0,1,9.5,4.91l-3.66,2.78a7.12,7.12,0,0,0-5.87-3.39c-2.23,0-3.46,1-3.46,2.39,0,1.9,1.77,2.58,4.91,3.46,4.2,1.13,8.65,2.45,8.65,7.39,0,3.85-2.9,7.27-9.55,7.27C116.1,60.2,112.86,57.75,111.09,54.32Zm22.28.78V42.53h5.2v11c0,1.55.58,2.39,2,2.39a5.84,5.84,0,0,0,3.75-1.75V42.53h5.2V59.75h-5.2V57.07a7.44,7.44,0,0,1-5.94,3C135.47,60.1,133.37,58.65,133.37,55.1Zm18.95-3.94c0-6.89,4.88-9,8.69-9,4.69,0,6.5,2.48,7.5,5.26l-4.36,1.45c-.68-2.19-1.68-2.9-3.2-2.9-2.1,0-3.43,1.77-3.43,5.2,0,3.07,1,5.26,3.36,5.26,1.39,0,2.66-.74,3.4-3.07l4.29,1.49a7.77,7.77,0,0,1-7.78,5.23C156.75,60.1,152.32,57.84,152.32,51.16Zm17.94,0c0-6.86,4.87-9,8.67-9,4.67,0,6.47,2.48,7.47,5.25l-4.35,1.45c-.68-2.19-1.68-2.9-3.19-2.9-2.09,0-3.41,1.77-3.41,5.18,0,3.06,1,5.25,3.35,5.25,1.39,0,2.64-.74,3.38-3.06l4.28,1.48a7.73,7.73,0,0,1-7.76,5.22C174.68,60.1,170.26,57.85,170.26,51.18Zm17.42,0c0-6.69,5.1-9,8.65-9s7.92,1.77,7.92,9.59v.77H192.84c.26,2.85,1.84,4,4,4A7.94,7.94,0,0,0,202,54.42l2,3.1a11.12,11.12,0,0,1-7.49,2.58C192,60.1,187.68,57.81,187.68,51.16Zm11.91-1.68c-.25-2.43-1.36-3.59-3.29-3.59-1.62,0-3,1.07-3.39,3.59Zm6.08,8,2.06-2.9a9.59,9.59,0,0,0,6,2.23c1.61,0,2.74-.55,2.74-1.68s-.9-1.65-3.26-2.07c-3.26-.58-6.75-1.36-6.75-5.4,0-3.45,2.84-5.45,6.68-5.45a11.06,11.06,0,0,1,7.56,2.42l-2,2.94a9.21,9.21,0,0,0-5.07-1.88c-1.49,0-2.33.59-2.33,1.52s.94,1.46,3.07,1.84c3.4.58,7,1.36,7,5.27,0,4.17-3.62,5.81-7.59,5.81A11.83,11.83,0,0,1,205.67,57.45Zm17.26,0,2.06-2.9a9.59,9.59,0,0,0,6,2.23c1.61,0,2.74-.55,2.74-1.68s-.9-1.65-3.26-2.07c-3.26-.58-6.75-1.36-6.75-5.4,0-3.45,2.84-5.45,6.68-5.45a11.06,11.06,0,0,1,7.56,2.42l-2,2.94a9.21,9.21,0,0,0-5.07-1.88c-1.49,0-2.33.59-2.33,1.52s.94,1.46,3.07,1.84c3.4.58,7,1.36,7,5.27,0,4.17-3.62,5.81-7.59,5.81A11.83,11.83,0,0,1,222.93,57.45Zm18.79,2.3V35.84h15.79v4.4H247v5.81h7.5v4.17H247v9.53Zm14.6-4.4c0-4,3.36-6.17,10.92-6.78v-.42c0-1.26-.64-2.07-2.32-2.07a9.11,9.11,0,0,0-5.65,2.14l-2.21-3a12.08,12.08,0,0,1,8.6-3.07c4.72,0,6.66,2.32,6.66,6.75v6.62a11.66,11.66,0,0,0,.48,4.2h-5.17a8.13,8.13,0,0,1-.39-2.52,7.62,7.62,0,0,1-6,2.78A4.61,4.61,0,0,1,256.32,55.35Zm10.92-.74v-3.2c-4.1.42-5.84,1.46-5.84,3,0,1.1.77,1.65,1.9,1.65A5.33,5.33,0,0,0,267.24,54.61Zm7.92-3.45c0-6.89,4.87-9,8.69-9,4.68,0,6.49,2.48,7.49,5.26L287,48.89c-.68-2.19-1.68-2.9-3.2-2.9-2.1,0-3.42,1.77-3.42,5.2,0,3.07,1,5.26,3.36,5.26,1.39,0,2.64-.74,3.38-3.07l4.3,1.49a7.75,7.75,0,0,1-7.78,5.23C279.58,60.1,275.16,57.84,275.16,51.16Zm20.25,3.74V46.31h-2.88V42.53h2.88V36.62h5.16v5.91H305v3.78h-4.43v7.46c0,1.84.52,2.43,2.39,2.43a6.39,6.39,0,0,0,1.72-.2v3.72a26.26,26.26,0,0,1-3.43.26C296.15,60,295.41,58.13,295.41,54.9Zm11.14-3.74c0-6.76,4.62-9,8.82-9s8.78,2.22,8.78,9-4.62,8.94-8.78,8.94S306.55,57.84,306.55,51.16Zm12.4,0c0-2.88-1-5.2-3.58-5.2s-3.62,2.1-3.62,5.2c0,2.87,1,5.26,3.62,5.26C317.82,56.45,319,54.32,319,51.19Zm8.21,8.56V42.53h5.2v2.88h0a6.51,6.51,0,0,1,5.81-3.23h.16l-.06,4.62a12.49,12.49,0,0,0-1.36-.1,5.74,5.74,0,0,0-4.58,2.36V59.75Zm11.94-2.3,2.07-2.9a9.59,9.59,0,0,0,6,2.23c1.61,0,2.75-.55,2.75-1.68S349,53.45,346.63,53c-3.26-.58-6.75-1.36-6.75-5.4,0-3.45,2.84-5.45,6.69-5.45a11.09,11.09,0,0,1,7.56,2.42l-2,2.94A9.15,9.15,0,0,0,347,45.66c-1.49,0-2.32.59-2.32,1.52s.93,1.46,3.06,1.84c3.39.58,7,1.36,7,5.27,0,4.17-3.62,5.81-7.59,5.81A11.88,11.88,0,0,1,339.1,57.45Z" transform="translate(-36.38 -26.27)"/></svg>